<svg width="40" height="40" viewBox="0 0 40 40" fill="none" xmlns="http://www.w3.org/2000/svg">
<rect width="40" height="40" rx="20" fill="white"/>
<path d="M27.2526 18.0968C27.1738 17.4166 26.8484 16.7855 26.3345 16.3158C25.8206 15.8461 25.1515 15.5682 24.446 15.5316V15.3316C24.4466 14.7627 24.3312 14.1994 24.1063 13.6738C23.8815 13.1482 23.5517 12.6708 23.1359 12.2691C22.7209 11.8662 22.2278 11.5467 21.6851 11.3289C21.1423 11.1111 20.5605 10.9993 19.973 11C18.7871 11.0004 17.6499 11.457 16.8114 12.2694C15.9728 13.0818 15.5015 14.1836 15.5011 15.3325V15.5347C14.8049 15.5826 14.148 15.8654 13.6447 16.3337C13.1414 16.8021 12.8235 17.4265 12.746 18.0984L12 24.682C12.0037 25.5648 12.3688 26.41 13.0152 27.0321C13.6617 27.6542 14.5367 28.0023 15.4479 28H24.5523C25.4635 28.0023 26.3383 27.6542 26.9848 27.0321C27.6312 26.41 27.9963 25.5648 28 24.682L27.2526 18.0968ZM16.8144 15.3396C16.8142 14.9378 16.8958 14.5398 17.0544 14.1686C17.2131 13.7973 17.4458 13.46 17.739 13.1758C18.0323 12.8916 18.3803 12.6661 18.7635 12.5123C19.1467 12.3585 19.5574 12.2795 19.9722 12.2795C20.3871 12.2791 20.7979 12.358 21.1812 12.5119C21.5644 12.6657 21.9127 12.8912 22.2058 13.1757C22.4996 13.4596 22.7325 13.7968 22.8914 14.1682C23.0503 14.5395 23.132 14.9376 23.1317 15.3396V15.5252H16.8144V15.3396ZM17.4374 19.8403C17.3332 19.8404 17.2299 19.8206 17.1336 19.782C17.0373 19.7434 16.9498 19.6868 16.8761 19.6154C16.8024 19.544 16.744 19.4592 16.7042 19.3659C16.6644 19.2726 16.6439 19.1726 16.644 19.0717C16.6439 18.9707 16.6644 18.8707 16.7042 18.7774C16.744 18.6841 16.8024 18.5993 16.8761 18.5279C16.9498 18.4565 17.0373 18.4 17.1336 18.3614C17.2299 18.3228 17.3332 18.303 17.4374 18.3031C17.5418 18.3029 17.6452 18.3225 17.7416 18.3611C17.8381 18.3996 17.9258 18.4561 17.9997 18.5275C18.0736 18.5989 18.1323 18.6837 18.1724 18.777C18.2125 18.8704 18.2331 18.9706 18.2332 19.0717C18.2331 19.1728 18.2125 19.2729 18.1724 19.3662C18.1323 19.4596 18.0736 19.5444 17.9997 19.6158C17.9258 19.6871 17.8381 19.7437 17.7416 19.7822C17.6452 19.8207 17.5418 19.8405 17.4374 19.8403V19.8403ZM22.5644 19.8403C22.46 19.8405 22.3566 19.8207 22.2602 19.7822C22.1637 19.7437 22.076 19.6871 22.0021 19.6158C21.9282 19.5444 21.8695 19.4596 21.8294 19.3662C21.7893 19.2729 21.7687 19.1728 21.7686 19.0717C21.7687 18.9706 21.7893 18.8704 21.8294 18.777C21.8695 18.6837 21.9282 18.5989 22.0021 18.5275C22.076 18.4561 22.1637 18.3996 22.2602 18.3611C22.3566 18.3225 22.46 18.3029 22.5644 18.3031C22.6686 18.303 22.7717 18.3228 22.868 18.3614C22.9643 18.4 23.052 18.4565 23.1257 18.5279C23.1994 18.5993 23.2578 18.6841 23.2976 18.7774C23.3374 18.8707 23.3579 18.9707 23.3578 19.0717C23.3579 19.1726 23.3374 19.2726 23.2976 19.3659C23.2578 19.4592 23.1994 19.544 23.1257 19.6154C23.052 19.6868 22.9643 19.7434 22.868 19.782C22.7717 19.8206 22.6686 19.8404 22.5644 19.8403V19.8403Z" fill="#FE724C"/>
</svg>
