<svg width="50" height="46" viewBox="0 0 50 46" fill="none" xmlns="http://www.w3.org/2000/svg">
<path d="M36.6348 3.63972e-08C34.2656 0.000413301 31.9392 0.631405 29.8945 1.82818C27.8498 3.02496 26.1605 4.74439 25 6.80991C23.8392 4.7439 22.1494 3.02415 20.104 1.82734C18.0587 0.630538 15.7316 -0.00017494 13.3619 3.63972e-08C9.73247 0.196015 6.31837 1.7837 3.82977 4.43278C1.34116 7.08187 -0.0303634 10.5884 0.00051014 14.2229C0.00051014 32.7572 25 45.6877 25 45.6877C25 45.6877 49.9995 32.7638 49.9995 14.2229C50.0303 10.5879 48.6583 7.08086 46.169 4.43169C43.6797 1.78252 40.2648 0.195192 36.6348 3.63972e-08V3.63972e-08Z" />
</svg>
